<svg width="198" height="44" viewBox="0 0 198 44" fill="none" xmlns="http://www.w3.org/2000/svg">
<path d="M197.611 26.935C197.611 30.715 195.061 32.905 189.421 32.905C183.001 32.905 179.701 29.935 179.701 24.625H182.461C182.461 28.675 184.831 30.595 189.481 30.595C193.141 30.595 194.851 29.425 194.851 27.085C194.851 25.435 193.771 24.175 191.311 23.545L185.401 22.015C182.071 21.145 180.691 19.225 180.691 16.705C180.691 13.045 183.331 11.095 188.191 11.095C193.951 11.095 196.981 13.855 196.981 18.415H194.191C194.191 15.055 192.181 13.375 188.191 13.375C185.101 13.375 183.451 14.425 183.451 16.585C183.451 18.085 184.351 19.225 186.661 19.825L192.511 21.295C195.931 22.165 197.611 24.145 197.611 26.935Z" fill="#1A1A1C" fill-opacity="0.6"/>
<path d="M162.479 28.435C162.479 26.065 163.919 24.415 167.459 24.085L173.309 23.515C173.189 20.815 171.959 19.525 169.319 19.525C167.249 19.525 165.689 20.485 165.449 22.975H162.809C163.139 19.585 165.419 17.365 169.289 17.365C173.639 17.365 175.979 20.035 175.979 23.965V30.295H178.169V32.575H175.439C174.299 32.575 173.639 31.915 173.639 30.775V30.055L174.059 28.465H173.309C172.739 30.745 171.149 32.875 167.519 32.875C163.139 32.875 162.479 29.995 162.479 28.435ZM165.119 28.105C165.119 29.815 166.229 30.685 167.939 30.685C171.179 30.685 173.309 28.405 173.309 25.405L167.909 25.975C166.079 26.155 165.119 26.665 165.119 28.105Z" fill="#1A1A1C" fill-opacity="0.6"/>
<path d="M144.607 28.435C144.607 26.065 146.047 24.415 149.587 24.085L155.437 23.515C155.317 20.815 154.087 19.525 151.447 19.525C149.377 19.525 147.817 20.485 147.577 22.975H144.937C145.267 19.585 147.547 17.365 151.417 17.365C155.767 17.365 158.107 20.035 158.107 23.965V30.295H160.297V32.575H157.567C156.427 32.575 155.767 31.915 155.767 30.775V30.055L156.187 28.465H155.437C154.867 30.745 153.277 32.875 149.647 32.875C145.267 32.875 144.607 29.995 144.607 28.435ZM147.247 28.105C147.247 29.815 148.357 30.685 150.067 30.685C153.307 30.685 155.437 28.405 155.437 25.405L150.037 25.975C148.207 26.155 147.247 26.665 147.247 28.105Z" fill="#1A1A1C" fill-opacity="0.6"/>
<path d="M141.859 26.935C141.859 30.715 139.309 32.905 133.669 32.905C127.249 32.905 123.949 29.935 123.949 24.625H126.709C126.709 28.675 129.079 30.595 133.729 30.595C137.389 30.595 139.099 29.425 139.099 27.085C139.099 25.435 138.019 24.175 135.559 23.545L129.649 22.015C126.319 21.145 124.939 19.225 124.939 16.705C124.939 13.045 127.579 11.095 132.439 11.095C138.199 11.095 141.229 13.855 141.229 18.415H138.439C138.439 15.055 136.429 13.375 132.439 13.375C129.349 13.375 127.699 14.425 127.699 16.585C127.699 18.085 128.599 19.225 130.909 19.825L136.759 21.295C140.179 22.165 141.859 24.145 141.859 26.935Z" fill="#1A1A1C" fill-opacity="0.6"/>
<path d="M121.971 30.295V32.575H116.121C114.711 32.575 114.021 31.915 114.021 30.475V19.945H110.721V17.665H114.021V13.885L116.691 13.075V17.665H121.371V19.945H116.691V30.325L121.971 30.295Z" fill="#1A1A1C"/>
<path d="M93.9414 32.575L98.9814 25.075L93.9414 17.665H96.9714L101.231 24.055H101.771L106.031 17.665H109.061L104.051 25.075L109.061 32.575H106.031L101.771 26.185H101.231L96.9714 32.575H93.9414Z" fill="#1A1A1C"/>
<path d="M78.1328 24.925C78.1328 20.095 81.0128 17.365 85.2728 17.365C89.6828 17.365 92.5628 20.035 92.5628 24.655V25.615H80.7128C80.8028 28.525 82.3328 30.745 85.4228 30.745C87.9728 30.745 89.4728 29.425 89.9828 27.355H92.6228C92.0228 30.115 90.0428 32.875 85.4528 32.875C80.5928 32.875 78.1328 29.335 78.1328 24.925ZM80.7428 23.725H89.9528C89.7728 21.025 87.9428 19.465 85.2728 19.465C82.8128 19.465 80.9528 21.025 80.7428 23.725Z" fill="#1A1A1C"/>
<path d="M56 32.575V11.425H61.46L71.54 31.825H72.29L71.84 29.935V11.425H74.54V32.575H69.08L59.03 12.175H58.25L58.73 14.065V32.575H56Z" fill="#1A1A1C"/>
<rect width="44" height="44" rx="22" fill="#864FFE"/>
<path d="M27.4996 20L29.6209 22.1213L27.4996 24.2426L25.3782 22.1213L27.4996 20Z" fill="#F5F5F7"/>
<path d="M20.6235 31.1204L18.5022 33.2418L16.3809 31.1204L18.5022 28.9991L20.6235 31.1204Z" fill="#F5F5F7"/>
<path d="M24.4996 17L26.6209 19.1213L24.4996 21.2426L22.3782 19.1213L24.4996 17Z" fill="#F5F5F7"/>
<path d="M23.6235 28.1204L21.5022 30.2418L19.3809 28.1204L21.5022 25.9991L23.6235 28.1204Z" fill="#F5F5F7"/>
<path d="M21.4996 14L23.6209 16.1213L21.4996 18.2426L19.3782 16.1213L21.4996 14Z" fill="#F5F5F7"/>
<path d="M26.6235 25.1204L24.5022 27.2418L22.3809 25.1204L24.5022 22.9991L26.6235 25.1204Z" fill="#F5F5F7"/>
<path d="M18.4996 11L20.6209 13.1213L18.4996 15.2426L16.3782 13.1213L18.4996 11Z" fill="#F5F5F7"/>
<path d="M23.6235 22.1204L21.5022 24.2418L19.3809 22.1204L21.5022 19.9991L23.6235 22.1204Z" fill="#F5F5F7"/>
<path d="M18.2426 22.1204L16.1213 24.2418L14 22.1204L16.1213 19.9991L18.2426 22.1204Z" fill="#F5F5F7"/>
</svg>
