<svg width="146" height="36" viewBox="0 0 146 36" fill="none" xmlns="http://www.w3.org/2000/svg">
<path d="M18.9182 34.9411H34.982V14.8737L22.4076 20.2756L18.9182 34.9411Z" fill="#231F20"/>
<path d="M36.0408 36H17.5781L21.5006 19.5128L36.0408 13.2663V36ZM23.3143 21.0379L20.2582 33.8824H33.9232V16.4805L23.3143 21.0379Z" fill="#D9D9D9"/>
<path d="M1.07482 29.1259V34.9412H18.0174L21.4883 20.3601L1.07482 29.1259Z" fill="#231F20"/>
<path d="M18.8535 36H0.0159992V28.4285L23.0061 18.5558L18.8535 36ZM2.13365 29.8234V33.8824H17.181L19.9703 22.1639L2.13365 29.8234Z" fill="#D9D9D9"/>
<path d="M1.07482 29.1259V34.9412H18.0174L21.4883 20.3601L1.07482 29.1259Z" fill="#231F20"/>
<path d="M18.8535 36H0.0159992V28.4285L23.0061 18.5558L18.8535 36ZM2.13365 29.8234V33.8824H17.181L19.9703 22.1639L2.13365 29.8234Z" fill="#D9D9D9"/>
<path d="M26.1344 17.5181L34.9657 13.7659V1.05882H16.7271L26.1344 17.5181Z" fill="#231F20"/>
<path d="M36.0248 0V14.4663L25.6821 18.8608L14.9026 0H36.0248ZM26.5864 16.1755L33.9071 13.0647V2.11765H18.5516L26.5864 16.1755Z" fill="#D9D9D9"/>
<path d="M26.1344 17.5181L34.9657 13.7659V1.05882H16.7271L26.1344 17.5181Z" fill="#231F20"/>
<path d="M36.0248 0V14.4663L25.6821 18.8608L14.9026 0H36.0248ZM26.5864 16.1755L33.9071 13.0647V2.11765H18.5516L26.5864 16.1755Z" fill="#D9D9D9"/>
<path d="M25.0804 17.8805L15.6583 1.10828H1.05882V28.1944L25.0804 17.8805Z" fill="#231F20"/>
<path d="M16.2779 0.0494531L26.5802 18.3886L0 29.8015V0.0494531H16.2779ZM2.11765 26.5873L23.5805 17.3717L15.0386 2.1671H2.11765V26.5873Z" fill="#D9D9D9"/>
<path d="M145.838 13.1506L142.407 24.8824H139.21L137.071 16.6871L134.932 24.8824H131.713L128.261 13.1506H131.268L133.344 22.0871L135.588 13.1506H138.723L140.925 22.0659L143 13.1506H145.838Z" fill="#212121"/>
<path d="M127.834 18.7624C127.834 19.1859 127.806 19.5671 127.749 19.9059H119.173C119.243 20.753 119.54 21.4165 120.062 21.8965C120.584 22.3765 121.227 22.6165 121.989 22.6165C123.09 22.6165 123.874 22.1435 124.34 21.1977H127.537C127.198 22.3271 126.549 23.2588 125.589 23.993C124.629 24.713 123.45 25.073 122.053 25.073C120.923 25.073 119.907 24.8259 119.003 24.3318C118.114 23.8235 117.415 23.1106 116.907 22.193C116.413 21.2753 116.166 20.2165 116.166 19.0165C116.166 17.8024 116.413 16.7365 116.907 15.8188C117.401 14.9012 118.093 14.1953 118.982 13.7012C119.871 13.2071 120.895 12.96 122.053 12.96C123.168 12.96 124.163 13.2 125.038 13.68C125.928 14.16 126.613 14.8447 127.093 15.7341C127.587 16.6094 127.834 17.6188 127.834 18.7624ZM124.763 17.9153C124.749 17.153 124.474 16.5459 123.937 16.0941C123.401 15.6282 122.744 15.3953 121.968 15.3953C121.234 15.3953 120.613 15.6212 120.104 16.073C119.61 16.5106 119.307 17.1247 119.194 17.9153H124.763Z" fill="#212121"/>
<path d="M112.96 11.753C112.438 11.753 112 11.5906 111.647 11.2659C111.309 10.9271 111.139 10.5106 111.139 10.0165C111.139 9.52237 111.309 9.11295 111.647 8.78825C112 8.44942 112.438 8.28001 112.96 8.28001C113.483 8.28001 113.913 8.44942 114.252 8.78825C114.605 9.11295 114.782 9.52237 114.782 10.0165C114.782 10.5106 114.605 10.9271 114.252 11.2659C113.913 11.5906 113.483 11.753 112.96 11.753ZM114.422 13.1506V24.8824H111.457V13.1506H114.422Z" fill="#212121"/>
<path d="M104.096 22.1506L107.06 13.1506H110.216L105.875 24.8824H102.275L97.9546 13.1506H101.131L104.096 22.1506Z" fill="#212121"/>
<path d="M97.4629 18.7624C97.4629 19.1859 97.4347 19.5671 97.3782 19.9059H88.8017C88.8723 20.753 89.1688 21.4165 89.6912 21.8965C90.2135 22.3765 90.8559 22.6165 91.6182 22.6165C92.7194 22.6165 93.5029 22.1435 93.9688 21.1977H97.1665C96.8276 22.3271 96.1782 23.2588 95.2182 23.993C94.2582 24.713 93.0794 25.073 91.6817 25.073C90.5523 25.073 89.5359 24.8259 88.6323 24.3318C87.7429 23.8235 87.0441 23.1106 86.5359 22.193C86.0417 21.2753 85.7947 20.2165 85.7947 19.0165C85.7947 17.8024 86.0417 16.7365 86.5359 15.8188C87.03 14.9012 87.7217 14.1953 88.6112 13.7012C89.5006 13.2071 90.5241 12.96 91.6817 12.96C92.797 12.96 93.7923 13.2 94.6676 13.68C95.557 14.16 96.2417 14.8447 96.7217 15.7341C97.2159 16.6094 97.4629 17.6188 97.4629 18.7624ZM94.3923 17.9153C94.3782 17.153 94.1029 16.5459 93.5664 16.0941C93.03 15.6282 92.3735 15.3953 91.597 15.3953C90.8629 15.3953 90.2417 15.6212 89.7335 16.073C89.2394 16.5106 88.9359 17.1247 88.8229 17.9153H94.3923Z" fill="#212121"/>
<path d="M81.038 24.8824L77.7769 19.1224H76.3792V24.8824H73.4145V10.1012H78.9628C80.1063 10.1012 81.0804 10.3059 81.8851 10.7153C82.6898 11.1106 83.2898 11.6541 83.6851 12.3459C84.0945 13.0236 84.2992 13.7859 84.2992 14.633C84.2992 15.6071 84.0169 16.4894 83.4522 17.28C82.8875 18.0565 82.0475 18.593 80.9322 18.8894L84.4686 24.8824H81.038ZM76.3792 16.8989H78.8569C79.6616 16.8989 80.2616 16.7083 80.6569 16.3271C81.0522 15.9318 81.2498 15.3883 81.2498 14.6965C81.2498 14.0189 81.0522 13.4965 80.6569 13.1294C80.2616 12.7483 79.6616 12.5577 78.8569 12.5577H76.3792V16.8989Z" fill="#212121"/>
<path d="M69.0803 15.5859V21.2612C69.0803 21.6565 69.1721 21.9459 69.3556 22.1294C69.5533 22.2988 69.878 22.3835 70.3297 22.3835H71.7062V24.8824H69.8427C67.3439 24.8824 66.0945 23.6682 66.0945 21.24V15.5859H64.6968V13.1506H66.0945V10.2494H69.0803V13.1506H71.7062V15.5859H69.0803Z" fill="#212121"/>
<path d="M60.4555 14.9718C60.8367 14.3506 61.3308 13.8636 61.9379 13.5106C62.559 13.1577 63.2649 12.9812 64.0555 12.9812V16.0941H63.272C62.3402 16.0941 61.6343 16.313 61.1543 16.7506C60.6884 17.1883 60.4555 17.9506 60.4555 19.0377V24.8824H57.4908V13.1506H60.4555V14.9718Z" fill="#212121"/>
<path d="M51.8183 22.0659H45.9313L44.9571 24.8824H41.8442L47.1595 10.08H50.6113L55.9266 24.8824H52.7924L51.8183 22.0659ZM51.0136 19.6941L48.8748 13.5106L46.736 19.6941H51.0136Z" fill="#212121"/>
</svg>
