<svg width="172" height="36" viewBox="0 0 172 36" fill="none" xmlns="http://www.w3.org/2000/svg">
<path d="M41.3045 0.763223C41.9609 0.763223 42.4931 1.29544 42.4931 1.95197V34.048C42.4931 34.7045 41.9609 35.2368 41.3045 35.2368H1.18872C0.532267 35.2368 0.000105985 34.7045 0.000105985 34.048V1.95197C0.000105985 1.29544 0.532267 0.763223 1.18872 0.763223H41.3045ZM2.37734 32.8593H40.1159V3.14071H2.37734V32.8593Z" fill="black"/>
<path d="M6.83987 9.56387C10.6985 8.76545 16.0095 8.77383 21.816 11.9414C27.0412 14.7918 31.7593 14.7835 35.1716 14.0774C36.8845 13.7229 38.2711 13.1914 39.2238 12.7516C39.6995 12.5321 40.0649 12.3362 40.3068 12.1985C40.4277 12.1297 40.518 12.0759 40.575 12.0406C40.6034 12.023 40.6235 12.0099 40.6353 12.0023C40.6411 11.9986 40.6446 11.9959 40.6463 11.9948C41.1924 11.6317 41.9296 11.7798 42.2935 12.3256C42.6576 12.8719 42.51 13.6099 41.9638 13.9741L41.3045 12.985C41.9292 13.9222 41.9615 13.9717 41.9626 13.9746L41.9615 13.9758C41.9615 13.9758 41.9592 13.9767 41.958 13.9775C41.9556 13.9792 41.9528 13.9816 41.9493 13.9839C41.9422 13.9886 41.9329 13.9945 41.9214 14.0019C41.8984 14.0167 41.8665 14.0368 41.8263 14.0617C41.7456 14.1116 41.6307 14.1809 41.4832 14.2649C41.1885 14.4327 40.7626 14.6603 40.2198 14.9109C39.1354 15.4114 37.5758 16.0083 35.6533 16.4061C31.7947 17.2045 26.4838 17.1961 20.6773 14.0286C15.452 11.1782 10.7339 11.1865 7.32158 11.8926C5.60868 12.247 4.22213 12.7785 3.26938 13.2183C2.79374 13.4379 2.42827 13.6338 2.18639 13.7715C2.0655 13.8403 1.97524 13.8941 1.91826 13.9294C1.88984 13.947 1.86971 13.9601 1.8579 13.9677C1.85215 13.9714 1.84859 13.9741 1.84687 13.9752C1.30077 14.3385 0.563653 14.1903 0.199756 13.6444C-0.164379 13.0981 -0.0167916 12.3601 0.529411 11.9959L1.11908 12.8805C0.56153 12.044 0.531714 11.9982 0.530572 11.9953L0.531733 11.9942C0.531733 11.9942 0.534003 11.9932 0.535215 11.9924C0.537653 11.9908 0.540372 11.9884 0.543921 11.986C0.551001 11.9814 0.560321 11.9754 0.571779 11.9681C0.594768 11.9533 0.626678 11.9332 0.666961 11.9083C0.74758 11.8583 0.862525 11.7891 1.00996 11.7051C1.30475 11.5373 1.73064 11.3096 2.27345 11.0591C3.35782 10.5586 4.91742 9.96166 6.83987 9.56387Z" fill="black"/>
<path d="M6.83987 19.5939C10.6985 18.7955 16.0095 18.8039 21.816 21.9714C27.0412 24.8218 31.7593 24.8135 35.1716 24.1074C36.8845 23.753 38.2711 23.2214 39.2238 22.7817C39.6995 22.5621 40.0649 22.3662 40.3068 22.2285C40.4277 22.1597 40.518 22.1059 40.575 22.0706C40.6034 22.053 40.6235 22.0399 40.6353 22.0323C40.6411 22.0286 40.6446 22.0259 40.6463 22.0248C41.1924 21.6617 41.9296 21.8098 42.2935 22.3556C42.6576 22.9019 42.51 23.6399 41.9638 24.0041L41.3045 23.015C41.9292 23.9522 41.9615 24.0017 41.9626 24.0047L41.9615 24.0058C41.9615 24.0058 41.9592 24.0068 41.958 24.0076C41.9556 24.0092 41.9528 24.0116 41.9493 24.0139C41.9422 24.0186 41.9329 24.0246 41.9214 24.0319C41.8984 24.0467 41.8665 24.0668 41.8263 24.0917C41.7456 24.1416 41.6307 24.2109 41.4832 24.2949C41.1885 24.4627 40.7626 24.6904 40.2198 24.9409C39.1354 25.4414 37.5758 26.0383 35.6533 26.4361C31.7947 27.2345 26.4838 27.2262 20.6773 24.0586C15.452 21.2082 10.7339 21.2165 7.32158 21.9226C5.60868 22.2771 4.22213 22.8086 3.26938 23.2483C2.79374 23.4679 2.42827 23.6638 2.18639 23.8015C2.0655 23.8703 1.97524 23.9241 1.91826 23.9594C1.88984 23.977 1.86971 23.9901 1.8579 23.9977C1.85215 24.0014 1.84859 24.0041 1.84687 24.0052C1.30077 24.3685 0.563653 24.2203 0.199756 23.6744C-0.164379 23.1281 -0.0167916 22.3901 0.529411 22.0259L1.11908 22.9105C0.56153 22.074 0.531714 22.0282 0.530572 22.0254L0.531733 22.0242C0.531733 22.0242 0.534003 22.0233 0.535215 22.0225C0.537653 22.0208 0.540372 22.0184 0.543921 22.0161C0.551001 22.0114 0.560321 22.0054 0.571779 21.9981C0.594768 21.9833 0.626678 21.9632 0.666961 21.9383C0.74758 21.8884 0.862525 21.8191 1.00996 21.7351C1.30475 21.5673 1.73064 21.3397 2.27345 21.0891C3.35782 20.5886 4.91742 19.9917 6.83987 19.5939Z" fill="black"/>
<path d="M27.5543 1.0012C28.0794 0.607335 28.8243 0.713545 29.2182 1.2386L28.2676 1.95197C29.2185 1.23872 29.2194 1.23976 29.2194 1.23976L29.22 1.24093C29.22 1.24093 29.2215 1.24274 29.2223 1.24383C29.2239 1.246 29.2258 1.24881 29.2281 1.25195C29.2328 1.25829 29.2392 1.26668 29.2467 1.27691C29.2615 1.29735 29.2815 1.32555 29.3064 1.36108C29.3566 1.43263 29.4263 1.5347 29.5107 1.66465C29.6795 1.92438 29.9086 2.29805 30.1613 2.76981C30.6653 3.71067 31.2719 5.05664 31.6773 6.6785C32.4937 9.9445 32.4919 14.348 29.2182 18.7134C26.4747 22.3719 26.4764 25.9926 27.1643 28.7445C27.511 30.1316 28.0327 31.2932 28.469 32.1076C28.6864 32.5135 28.8807 32.8294 29.0174 33.0398C29.0857 33.1449 29.1397 33.2233 29.1747 33.2731C29.1922 33.298 29.2049 33.3162 29.2124 33.3265C29.2151 33.3302 29.2169 33.3329 29.2182 33.3347C29.6121 33.8598 29.5059 34.6048 28.9809 34.9988C28.4558 35.3927 27.7108 35.2864 27.3169 34.7614L28.2676 34.048C27.3167 34.7613 27.3157 34.7602 27.3157 34.7602L27.3152 34.7591C27.3152 34.7591 27.3137 34.7573 27.3128 34.7562C27.3112 34.754 27.3094 34.7512 27.307 34.748C27.3024 34.7417 27.2959 34.7333 27.2885 34.7231C27.2736 34.7026 27.2536 34.6744 27.2287 34.6389C27.1785 34.5674 27.1089 34.4653 27.0244 34.3353C26.8556 34.0756 26.6265 33.7019 26.3738 33.2302C25.8698 32.2893 25.2633 30.9434 24.8578 29.3215C24.0414 26.0555 24.0433 21.652 27.3169 17.2866C30.0604 13.6281 30.0588 10.0074 29.3709 7.25545C29.0241 5.86838 28.5024 4.70675 28.0662 3.89238C27.8488 3.48652 27.6545 3.17062 27.5177 2.96019C27.4494 2.85513 27.3954 2.77674 27.3604 2.72685C27.343 2.70195 27.3302 2.6838 27.3227 2.67345C27.3195 2.66902 27.3175 2.66579 27.3163 2.66417C26.9232 2.13905 27.0296 1.39495 27.5543 1.0012Z" fill="black"/>
<path d="M13.5138 1.0012C14.0389 0.607335 14.7838 0.713545 15.1777 1.2386L14.227 1.95197C15.1779 1.23872 15.1789 1.23976 15.1789 1.23976L15.1794 1.24093C15.1794 1.24093 15.181 1.24274 15.1818 1.24383C15.1834 1.246 15.1853 1.24881 15.1876 1.25195C15.1923 1.25829 15.1987 1.26668 15.2061 1.27691C15.221 1.29735 15.241 1.32555 15.2659 1.36108C15.3161 1.43263 15.3858 1.5347 15.4702 1.66465C15.639 1.92438 15.8681 2.29805 16.1208 2.76981C16.6248 3.71067 17.2313 5.05664 17.6368 6.6785C18.4532 9.9445 18.4514 14.348 15.1777 18.7134C12.4342 22.3719 12.4359 25.9926 13.1237 28.7445C13.4705 30.1316 13.9922 31.2932 14.4284 32.1076C14.6458 32.5135 14.8401 32.8294 14.9769 33.0398C15.0452 33.1449 15.0992 33.2233 15.1342 33.2731C15.1517 33.298 15.1644 33.3162 15.1719 33.3265C15.1745 33.3302 15.1764 33.3329 15.1777 33.3347C15.5715 33.8598 15.4653 34.6048 14.9403 34.9988C14.4152 35.3927 13.6703 35.2864 13.2764 34.7614L14.227 34.048C13.2762 34.7613 13.2752 34.7602 13.2752 34.7602L13.2746 34.7591C13.2746 34.7591 13.2731 34.7573 13.2723 34.7562C13.2707 34.754 13.2688 34.7512 13.2665 34.748C13.2618 34.7417 13.2554 34.7333 13.2479 34.7231C13.2331 34.7026 13.2131 34.6744 13.1882 34.6389C13.138 34.5674 13.0683 34.4653 12.9839 34.3353C12.8151 34.0756 12.586 33.7019 12.3333 33.2302C11.8293 32.2893 11.2228 30.9434 10.8173 29.3215C10.0009 26.0555 10.0027 21.652 13.2764 17.2866C16.0199 13.6281 16.0182 10.0074 15.3303 7.25545C14.9836 5.86838 14.4619 4.70675 14.0257 3.89238C13.8083 3.48652 13.614 3.17062 13.4772 2.96019C13.4089 2.85513 13.3549 2.77674 13.3199 2.72685C13.3024 2.70195 13.2897 2.6838 13.2822 2.67345C13.279 2.66902 13.277 2.66579 13.2758 2.66417C12.8827 2.13905 12.989 1.39495 13.5138 1.0012Z" fill="black"/>
<path d="M156.567 36C155.954 36 155.397 35.9497 154.894 35.8491C154.391 35.7576 154.016 35.657 153.769 35.5473L154.756 32.186C155.506 32.3872 156.174 32.4741 156.759 32.4466C157.345 32.4192 157.861 32.1997 158.309 31.7881C158.767 31.3765 159.169 30.7043 159.517 29.7713L160.024 28.3719L152.315 7.02439H156.704L162.041 23.378H162.26L167.596 7.02439H172L163.316 30.9101C162.914 32.0076 162.402 32.936 161.78 33.6951C161.158 34.4634 160.417 35.0396 159.558 35.4238C158.698 35.8079 157.701 36 156.567 36Z" fill="black"/>
<path d="M140.987 28.5229C138.911 28.5229 137.123 28.0793 135.623 27.1921C134.132 26.2957 132.98 25.0381 132.166 23.4192C131.361 21.7912 130.959 19.8841 130.959 17.6982C130.959 15.5396 131.361 13.6372 132.166 11.9909C132.98 10.3445 134.114 9.05945 135.568 8.13567C137.032 7.21189 138.742 6.75 140.699 6.75C141.888 6.75 143.04 6.94665 144.156 7.33994C145.272 7.73323 146.273 8.35061 147.16 9.19207C148.047 10.0335 148.747 11.1265 149.259 12.471C149.771 13.8064 150.027 15.4299 150.027 17.3415V18.7957H133.277V15.7226H146.008C146.008 14.6433 145.788 13.6875 145.349 12.8552C144.91 12.0137 144.293 11.3506 143.497 10.8659C142.711 10.3811 141.787 10.1387 140.726 10.1387C139.574 10.1387 138.568 10.4223 137.708 10.9893C136.858 11.5473 136.199 12.279 135.733 13.1845C135.276 14.0808 135.047 15.0549 135.047 16.1067V18.5076C135.047 19.9162 135.294 21.1143 135.788 22.1021C136.291 23.0899 136.99 23.8445 137.887 24.3659C138.783 24.878 139.83 25.1341 141.028 25.1341C141.805 25.1341 142.514 25.0244 143.154 24.8049C143.795 24.5762 144.348 24.2378 144.814 23.7896C145.281 23.3415 145.637 22.7881 145.884 22.1296L149.766 22.8293C149.456 23.9726 148.898 24.9741 148.093 25.8338C147.297 26.6845 146.296 27.3476 145.089 27.8232C143.891 28.2896 142.523 28.5229 140.987 28.5229Z" fill="black"/>
<path d="M128.768 7.02439L121.127 28.0976H116.737L109.082 7.02439H113.486L118.822 23.2409H119.042L124.364 7.02439H128.768Z" fill="black"/>
<path d="M95.6351 28.564C94.2999 28.564 93.0927 28.3171 92.0135 27.8232C90.9344 27.3201 90.0793 26.593 89.4483 25.6418C88.8264 24.6905 88.5154 23.5244 88.5154 22.1433C88.5154 20.9543 88.7441 19.9756 89.2013 19.2073C89.6586 18.439 90.2759 17.8308 91.0533 17.3826C91.8306 16.9345 92.6994 16.596 93.6597 16.3674C94.62 16.1387 95.5985 15.9649 96.5954 15.846C97.8574 15.6997 98.8817 15.5808 99.6682 15.4893C100.455 15.3887 101.026 15.2287 101.383 15.0091C101.74 14.7896 101.918 14.4329 101.918 13.939V13.843C101.918 12.6448 101.58 11.7165 100.903 11.0579C100.235 10.3994 99.2384 10.0701 97.9123 10.0701C96.5313 10.0701 95.443 10.3765 94.6474 10.9893C93.8609 11.593 93.3168 12.2652 93.015 13.0061L89.1602 12.128C89.6175 10.8476 90.2851 9.81402 91.163 9.02744C92.0501 8.23171 93.0698 7.65549 94.2222 7.29878C95.3745 6.93293 96.5862 6.75 97.8574 6.75C98.6988 6.75 99.5905 6.85061 100.532 7.05183C101.484 7.2439 102.371 7.60061 103.194 8.12195C104.026 8.64329 104.707 9.38872 105.238 10.3582C105.768 11.3186 106.033 12.5671 106.033 14.1037V28.0976H102.028V25.2165H101.863C101.598 25.747 101.2 26.2683 100.67 26.7805C100.139 27.2927 99.4579 27.718 98.6256 28.0564C97.7934 28.3948 96.7966 28.564 95.6351 28.564ZM96.5268 25.2713C97.6608 25.2713 98.6302 25.0473 99.435 24.5991C100.249 24.1509 100.866 23.5655 101.287 22.843C101.717 22.1113 101.932 21.3293 101.932 20.497V17.7805C101.785 17.9268 101.502 18.064 101.081 18.1921C100.67 18.311 100.199 18.4162 99.6682 18.5076C99.1378 18.5899 98.6211 18.6677 98.1181 18.7409C97.6151 18.8049 97.1944 18.8598 96.856 18.9055C96.0604 19.0061 95.3333 19.1753 94.6748 19.4131C94.0255 19.6509 93.5042 19.9939 93.111 20.4421C92.7269 20.8811 92.5348 21.4665 92.5348 22.1982C92.5348 23.2134 92.9098 23.9817 93.6597 24.503C94.4096 25.0152 95.3653 25.2713 96.5268 25.2713Z" fill="black"/>
<path d="M59.6458 28.0976L51.854 0H56.3123L61.7858 21.7591H62.0465L67.7395 0H72.1567L77.8497 21.7729H78.1103L83.5701 0H88.0422L80.2366 28.0976H75.9703L70.0578 7.05183H69.8383L63.9258 28.0976H59.6458Z" fill="black"/>
</svg>
