<svg width="200" height="36" viewBox="0 0 200 36" fill="none" xmlns="http://www.w3.org/2000/svg">
<path d="M32.3201 15.1206C32.2632 15.1202 32.1988 15.1195 32.1237 15.1195H28.2451C28.1699 15.1195 28.1057 15.1202 28.0488 15.1206C28.0485 15.1775 28.0483 15.2417 28.0483 15.3169V19.1955C28.0483 19.4037 28.0488 19.6258 28.0333 19.8155C28.0167 20.018 27.9765 20.2781 27.8407 20.5447C27.6582 20.9028 27.367 21.1941 27.0088 21.3766C26.7422 21.5124 26.4821 21.5526 26.2796 21.5692C26.0899 21.5847 25.8678 21.5842 25.6596 21.5842H21.781C21.7058 21.5842 21.6416 21.5844 21.5847 21.5847C21.5844 21.6416 21.5842 21.7058 21.5842 21.781V25.6596C21.5842 25.8678 21.5847 26.0899 21.5692 26.2796C21.5526 26.4821 21.5124 26.7422 21.3766 27.0088C21.1941 27.367 20.9028 27.6582 20.5447 27.8407C20.2781 27.9765 20.018 28.0167 19.8155 28.0333C19.6258 28.0488 19.4037 28.0483 19.1955 28.0483H15.3169C15.2417 28.0483 15.1775 28.0485 15.1206 28.0488C15.1202 28.1057 15.1195 28.1699 15.1195 28.2451V32.1237C15.1195 32.1988 15.1202 32.2632 15.1206 32.3201C15.1775 32.3204 15.2417 32.3211 15.3169 32.3211H32.1237C32.1988 32.3211 32.2632 32.3204 32.3201 32.3201C32.3204 32.2632 32.3211 32.1988 32.3211 32.1237V15.3169C32.3211 15.2417 32.3204 15.1775 32.3201 15.1206ZM8.07922 18.3524C8.02234 18.352 7.958 18.3518 7.88289 18.3518H4.00431C3.92911 18.3518 3.86491 18.352 3.80798 18.3524C3.80763 18.4094 3.80744 18.4739 3.80744 18.5492V22.4278C3.80744 22.5028 3.80764 22.5668 3.80798 22.6236C3.86491 22.624 3.92911 22.6247 4.00431 22.6247H7.88289C7.958 22.6247 8.02234 22.624 8.07922 22.6236C8.07956 22.5668 8.08029 22.5028 8.08029 22.4278V18.5492C8.08029 18.4739 8.07957 18.4094 8.07922 18.3524ZM19.3913 8.65646C19.3345 8.65613 19.2705 8.65539 19.1955 8.65539H15.3169C15.2417 8.65539 15.1775 8.65612 15.1206 8.65646C15.1202 8.71338 15.1195 8.77764 15.1195 8.8528V12.7314C15.1195 12.8063 15.1202 12.8704 15.1206 12.9272C15.1775 12.9275 15.2417 12.9282 15.3169 12.9282H19.1955C19.2705 12.9282 19.3345 12.9275 19.3913 12.9272C19.3916 12.8704 19.3929 12.8063 19.3929 12.7314V8.8528C19.3929 8.77764 19.3916 8.71338 19.3913 8.65646ZM6.46306 2.19181L6.26726 2.19128H2.38868C2.31333 2.19128 2.24883 2.19147 2.19181 2.19181C2.19147 2.24883 2.19128 2.31333 2.19128 2.38868V6.26726C2.19128 6.34222 2.19147 6.40626 2.19181 6.46306C2.24883 6.46341 2.31333 6.46413 2.38868 6.46413H6.26726C6.34223 6.46413 6.40626 6.4634 6.46306 6.46306C6.4634 6.40626 6.46413 6.34223 6.46413 6.26726V2.38868C6.46413 2.31333 6.46341 2.24883 6.46306 2.19181ZM10.2716 22.4278C10.2716 22.6359 10.2726 22.8577 10.2571 23.0473C10.2406 23.2498 10.1998 23.5099 10.064 23.7765C9.88148 24.1347 9.59027 24.4259 9.2321 24.6084C8.96548 24.7442 8.70542 24.785 8.50292 24.8015C8.31324 24.817 8.09104 24.816 7.88289 24.816H4.00431C3.79626 24.816 3.5744 24.817 3.38481 24.8015C3.18232 24.785 2.92224 24.7442 2.65564 24.6084C2.29744 24.4259 2.00626 24.1347 1.82375 23.7765C1.68792 23.5099 1.64717 23.2498 1.63062 23.0473C1.61515 22.8577 1.61618 22.6359 1.61618 22.4278V18.5492C1.61618 18.3411 1.61513 18.1189 1.63062 17.9292C1.64717 17.7267 1.6879 17.4667 1.82375 17.2L1.89704 17.069C2.07995 16.7707 2.3422 16.5278 2.65564 16.3681L2.75514 16.3216C2.98629 16.2226 3.20763 16.1895 3.38481 16.175C3.5744 16.1595 3.79627 16.1606 4.00431 16.1606H7.88289C8.09104 16.1606 8.31324 16.1595 8.50292 16.175C8.68013 16.1895 8.90141 16.2226 9.13259 16.3216L9.2321 16.3681L9.36317 16.4414C9.61884 16.5982 9.83389 16.8133 9.99069 17.069L10.064 17.2L10.1105 17.2995C10.2095 17.5307 10.2426 17.752 10.2571 17.9292C10.2726 18.1189 10.2716 18.3411 10.2716 18.5492V22.4278ZM34.5124 32.1237C34.5124 32.3319 34.5134 32.5541 34.498 32.7438C34.4814 32.9463 34.4407 33.2063 34.3048 33.4729C34.1223 33.8311 33.8311 34.1223 33.4729 34.3048C33.2063 34.4407 32.9463 34.4814 32.7438 34.498C32.5541 34.5134 32.3319 34.5124 32.1237 34.5124H15.3169C15.1087 34.5124 14.8866 34.5135 14.6969 34.498C14.4944 34.4814 14.2343 34.4407 13.9677 34.3048C13.6096 34.1223 13.3183 33.8311 13.1358 33.4729C13 33.2063 12.9598 32.9462 12.9432 32.7438C12.9277 32.5541 12.9282 32.3319 12.9282 32.1237V28.2451C12.9282 28.0371 12.9277 27.8152 12.9432 27.6256C12.9598 27.4232 13 27.163 13.1358 26.8965L13.2096 26.7654C13.3925 26.4673 13.6544 26.2243 13.9677 26.0646L14.0672 26.018C14.2984 25.919 14.5196 25.8859 14.6969 25.8715C14.8866 25.856 15.1087 25.857 15.3169 25.857H19.1955C19.2705 25.857 19.3345 25.8557 19.3913 25.8554C19.3916 25.7986 19.3929 25.7345 19.3929 25.6596V21.781C19.3929 21.5729 19.3918 21.3507 19.4073 21.161C19.4239 20.9586 19.4643 20.6988 19.5999 20.4324L19.6738 20.3008C19.8567 20.0027 20.119 19.7596 20.4324 19.5999L20.5319 19.5534C20.7628 19.4545 20.9839 19.4218 21.161 19.4073C21.3507 19.3918 21.5729 19.3929 21.781 19.3929H25.6596C25.7345 19.3929 25.7986 19.3916 25.8554 19.3913C25.8557 19.3345 25.857 19.2705 25.857 19.1955V15.3169C25.857 15.1087 25.856 14.8866 25.8715 14.6969C25.888 14.4944 25.9288 14.2343 26.0646 13.9677L26.1379 13.8366C26.3208 13.5385 26.5831 13.2955 26.8965 13.1358L26.996 13.0893C27.2271 12.9903 27.4485 12.9577 27.6256 12.9432C27.8152 12.9277 28.0371 12.9282 28.2451 12.9282H32.1237C32.3319 12.9282 32.5541 12.9277 32.7438 12.9432C32.9462 12.9598 33.2063 13 33.4729 13.1358C33.8311 13.3183 34.1223 13.6096 34.3048 13.9677C34.4406 14.2343 34.4814 14.4944 34.498 14.6969C34.5135 14.8866 34.5124 15.1087 34.5124 15.3169V32.1237ZM21.5842 12.7314C21.5842 12.9395 21.5847 13.1617 21.5692 13.3514C21.5526 13.5538 21.5123 13.8136 21.3766 14.0801C21.1941 14.4382 20.9029 14.73 20.5447 14.9125C20.2781 15.0483 20.018 15.0885 19.8155 15.1051C19.6258 15.1206 19.4037 15.1195 19.1955 15.1195H15.3169C15.1087 15.1195 14.8866 15.1206 14.6969 15.1051C14.4944 15.0885 14.2343 15.0483 13.9677 14.9125C13.6095 14.73 13.3183 14.4382 13.1358 14.0801C13.0001 13.8136 12.9598 13.5538 12.9432 13.3514C12.9277 13.1617 12.9282 12.9395 12.9282 12.7314V8.8528C12.9282 8.64461 12.9277 8.42247 12.9432 8.23276C12.9598 8.03027 13 7.7702 13.1358 7.50359C13.3183 7.14544 13.6096 6.85422 13.9677 6.6717C14.2343 6.53588 14.4944 6.49566 14.6969 6.47911C14.8866 6.46361 15.1087 6.46413 15.3169 6.46413H19.1955C19.4037 6.46413 19.6258 6.46361 19.8155 6.47911C19.9927 6.4936 20.214 6.52614 20.4452 6.62516L20.5447 6.6717L20.6758 6.74499C20.9313 6.90174 21.146 7.11698 21.3028 7.37252L21.3766 7.50359L21.4231 7.6031C21.5221 7.83427 21.5547 8.05556 21.5692 8.23276C21.5847 8.42247 21.5842 8.64461 21.5842 8.8528V12.7314ZM8.65539 6.26726C8.65539 6.47531 8.65643 6.69717 8.64095 6.88676C8.62441 7.08925 8.58366 7.34933 8.44782 7.61593C8.26531 7.97413 7.97413 8.26531 7.61593 8.44782C7.34933 8.58366 7.08925 8.62441 6.88676 8.64095C6.69717 8.65643 6.47531 8.65539 6.26726 8.65539H2.38868C2.18053 8.65539 1.95833 8.65644 1.76865 8.64095C1.56615 8.6244 1.30609 8.58367 1.03947 8.44782C0.681297 8.26531 0.390088 7.97412 0.207586 7.61593C0.0717708 7.34935 0.031002 7.08924 0.0144592 6.88676C-0.00101686 6.69718 1.4189e-05 6.47531 1.48279e-05 6.26726V2.38868C1.48279e-05 2.18053 -0.0010317 1.95833 0.0144592 1.76865C0.0310037 1.56615 0.0717361 1.30609 0.207586 1.03947C0.390096 0.681277 0.681277 0.390096 1.03947 0.207586C1.30609 0.0717361 1.56615 0.0310037 1.76865 0.0144592C1.95833 -0.0010317 2.18053 1.4828e-05 2.38868 1.4828e-05H6.26726L6.58397 0.00161976C6.68912 0.00334322 6.79198 0.00672219 6.88676 0.0144592C7.08924 0.0310019 7.34935 0.0717708 7.61593 0.207586C7.97412 0.390088 8.26531 0.681297 8.44782 1.03947C8.58367 1.30609 8.6244 1.56615 8.64095 1.76865C8.65644 1.95833 8.65539 2.18053 8.65539 2.38868V6.26726Z" fill="black"/>
<path d="M181.904 35.608V9.71129H185.684V19.334H185.912C186.131 18.9294 186.447 18.4616 186.86 17.9305C187.274 17.3994 187.847 16.9357 188.58 16.5395C189.314 16.1349 190.283 15.9326 191.488 15.9326C193.056 15.9326 194.456 16.3288 195.687 17.1212C196.917 17.9136 197.883 19.0559 198.582 20.548C199.29 22.0401 199.644 23.8356 199.644 25.9347C199.644 28.0337 199.295 29.8335 198.595 31.3341C197.895 32.8261 196.934 33.9768 195.712 34.7861C194.49 35.5869 193.094 35.9874 191.526 35.9874C190.346 35.9874 189.381 35.7893 188.631 35.3931C187.889 34.9969 187.307 34.5332 186.886 34.0021C186.464 33.471 186.14 32.999 185.912 32.5859H185.596V35.608H181.904ZM185.609 25.8967C185.609 27.2624 185.807 28.4594 186.203 29.4879C186.599 30.5163 187.172 31.3214 187.923 31.9031C188.673 32.4763 189.592 32.7629 190.679 32.7629C191.809 32.7629 192.753 32.4637 193.512 31.8651C194.27 31.2582 194.844 30.4363 195.231 29.3994C195.628 28.3625 195.826 27.195 195.826 25.8967C195.826 24.6154 195.632 23.4647 195.244 22.4447C194.865 21.4247 194.291 20.6196 193.524 20.0295C192.766 19.4394 191.817 19.1444 190.679 19.1444C189.583 19.1444 188.656 19.4268 187.897 19.9916C187.147 20.5564 186.578 21.3446 186.19 22.3562C185.802 23.3678 185.609 24.548 185.609 25.8967Z" fill="black"/>
<path d="M172.727 27.5532V16.1855H176.52V35.608H172.803V32.2445H172.6C172.154 33.2814 171.437 34.1454 170.451 34.8367C169.473 35.5195 168.255 35.8609 166.796 35.8609C165.549 35.8609 164.444 35.5869 163.483 35.039C162.531 34.4826 161.781 33.6607 161.233 32.5732C160.693 31.4858 160.423 30.1412 160.423 28.5395V16.1855H164.204V28.0843C164.204 29.4078 164.571 30.4616 165.304 31.2455C166.038 32.0295 166.99 32.4215 168.162 32.4215C168.87 32.4215 169.574 32.2445 170.274 31.8904C170.982 31.5364 171.568 31.0011 172.031 30.2845C172.503 29.568 172.735 28.6575 172.727 27.5532Z" fill="black"/>
<path d="M155.336 9.71129V35.608H151.556V9.71129H155.336Z" fill="black"/>
<path d="M147.184 18.1328H143.239C143.088 17.2898 142.805 16.548 142.392 15.9073C141.979 15.2666 141.473 14.7229 140.875 14.2761C140.276 13.8293 139.606 13.4921 138.864 13.2645C138.131 13.0369 137.351 12.9231 136.525 12.9231C135.033 12.9231 133.697 13.2982 132.516 14.0485C131.345 14.7988 130.417 15.8989 129.735 17.3488C129.06 18.7988 128.723 20.569 128.723 22.6597C128.723 24.7671 129.06 26.5459 129.735 27.9958C130.417 29.4457 131.349 30.5416 132.529 31.2835C133.709 32.0253 135.037 32.3962 136.512 32.3962C137.33 32.3962 138.105 32.2866 138.839 32.0675C139.581 31.8398 140.251 31.5069 140.849 31.0685C141.448 30.6302 141.954 30.0949 142.367 29.4626C142.788 28.8219 143.079 28.0885 143.239 27.2624L147.184 27.275C146.974 28.548 146.565 29.7197 145.958 30.7903C145.359 31.8525 144.588 32.7714 143.644 33.5469C142.708 34.314 141.638 34.9083 140.432 35.3298C139.227 35.7513 137.912 35.9621 136.487 35.9621C134.245 35.9621 132.247 35.431 130.493 34.3688C128.74 33.2982 127.357 31.7682 126.346 29.7787C125.343 27.7893 124.841 25.4162 124.841 22.6597C124.841 19.8946 125.347 17.5216 126.358 15.5406C127.37 13.5511 128.752 12.0253 130.506 10.9631C132.259 9.89253 134.253 9.35723 136.487 9.35723C137.861 9.35723 139.142 9.55534 140.331 9.95155C141.528 10.3393 142.603 10.9126 143.555 11.6713C144.508 12.4215 145.296 13.3404 145.92 14.4278C146.544 15.5069 146.965 16.7418 147.184 18.1328Z" fill="black"/>
<path d="M111.411 20.9273L107.985 21.5342C107.841 21.0959 107.614 20.6786 107.302 20.2824C106.998 19.8862 106.585 19.5616 106.063 19.3087C105.54 19.0558 104.887 18.9294 104.103 18.9294C103.032 18.9294 102.138 19.1697 101.422 19.6502C100.705 20.1222 100.347 20.7334 100.347 21.4837C100.347 22.1328 100.587 22.6554 101.068 23.0516C101.548 23.4478 102.324 23.7724 103.394 24.0253L106.48 24.7334C108.267 25.1465 109.599 25.7829 110.476 26.6428C111.352 27.5026 111.791 28.6196 111.791 29.9937C111.791 31.157 111.453 32.1939 110.779 33.1043C110.113 34.0063 109.182 34.7144 107.985 35.2287C106.796 35.7429 105.418 36 103.85 36C101.675 36 99.9002 35.5364 98.5262 34.6091C97.1521 33.6733 96.3091 32.3456 95.9972 30.6259L99.6516 30.0695C99.8792 31.0221 100.347 31.7429 101.055 32.2318C101.763 32.7123 102.686 32.9526 103.824 32.9526C105.064 32.9526 106.054 32.6955 106.796 32.1812C107.538 31.6586 107.909 31.0221 107.909 30.2719C107.909 29.6649 107.681 29.1549 107.226 28.7418C106.779 28.3288 106.092 28.0169 105.165 27.8061L101.877 27.0854C100.065 26.6723 98.7243 26.0148 97.856 25.1127C96.9961 24.2107 96.5662 23.0685 96.5662 21.686C96.5662 20.5395 96.8865 19.5364 97.5272 18.6765C98.1679 17.8166 99.053 17.1465 100.183 16.666C101.312 16.177 102.606 15.9326 104.065 15.9326C106.164 15.9326 107.816 16.3878 109.021 17.2982C110.227 18.2002 111.024 19.4099 111.411 20.9273Z" fill="black"/>
<path d="M92.9879 16.1855V19.2202H82.3788V16.1855H92.9879ZM85.2239 11.5321H89.0048V29.9052C89.0048 30.6386 89.1143 31.1907 89.3335 31.5617C89.5527 31.9241 89.8351 32.1728 90.1807 32.3077C90.5348 32.4342 90.9184 32.4974 91.3314 32.4974C91.6349 32.4974 91.9004 32.4763 92.128 32.4342C92.3557 32.392 92.5327 32.3583 92.6591 32.333L93.342 35.4563C93.1228 35.5406 92.8109 35.6249 92.4062 35.7092C92.0016 35.8019 91.4958 35.8525 90.8888 35.8609C89.8941 35.8778 88.9668 35.7007 88.107 35.3298C87.2471 34.9589 86.5517 34.3857 86.0206 33.6101C85.4895 32.8346 85.2239 31.8609 85.2239 30.6892V11.5321Z" fill="black"/>
<path d="M69.1082 35.608V16.1855H72.7626V19.2708H72.9649C73.319 18.2255 73.9428 17.4036 74.8364 16.8051C75.7384 16.1981 76.7584 15.8946 77.8964 15.8946C78.1325 15.8946 78.4106 15.9031 78.731 15.9199C79.0597 15.9368 79.3169 15.9579 79.5023 15.9832V19.5996C79.3506 19.5574 79.0808 19.5111 78.693 19.4605C78.3053 19.4015 77.9175 19.372 77.5297 19.372C76.6361 19.372 75.8395 19.5617 75.1398 19.941C74.4486 20.3119 73.9006 20.8304 73.496 21.4963C73.0914 22.1539 72.889 22.9041 72.889 23.7471V35.608H69.1082Z" fill="black"/>
<path d="M46.6664 35.608H42.5188L51.8381 9.71129H56.3523L65.6716 35.608H61.5241L54.2027 14.4152H54.0004L46.6664 35.608ZM47.3618 25.4668H60.816V28.7545H47.3618V25.4668Z" fill="black"/>
</svg>
