<svg width="352" height="330" viewBox="0 0 352 330" fill="none" xmlns="http://www.w3.org/2000/svg">
<path d="M351.415 232.339C351.34 230.455 351.212 228.572 351.069 226.681L351.009 226.086C350.85 224.195 350.67 222.304 350.459 220.421L337.728 88.9443C337.223 83.3094 336.748 77.6671 336.349 72.0248C335.618 61.7043 334.451 51.2105 330.775 41.4701C329.57 38.276 328.063 35.2552 326.376 32.2947C318.119 18.4261 304.793 7.85713 289.387 3.02082C282.992 1.00946 276.287 0 269.582 0C248.407 0 230.681 12.136 215.238 25.417C196.91 41.184 178.468 56.8228 160.042 72.4768C136.968 92.0782 115.084 110.7 91.8219 130.626C79.6257 141.074 66.8189 151.583 54.1707 161.481C42.8181 170.363 29.5145 180.345 20.083 191.396C7.88671 205.679 0.391452 224.097 0.0147922 244.256C-0.851525 290.525 36.4453 329.118 82.7217 329.758C129.608 330.406 167.817 292.597 167.817 245.861C167.817 231.728 164.336 217.506 157.21 205.053C153.812 199.11 146.618 190.733 141.353 186.356C136.102 181.987 130.867 177.663 127.221 171.757C121.819 163.003 118.941 152.811 118.941 142.528C118.941 111.747 143.892 86.7899 174.68 86.7899C199.102 86.7899 219.909 101.992 232.399 122.188C246.659 145.255 246.84 170.175 246.84 196.405C246.84 211.517 246.84 226.621 246.84 241.733C246.84 270.652 270.283 294.096 299.203 294.096C319.422 294.096 337.66 281.975 346.233 263.782C350.813 254.064 351.838 243.307 351.401 232.339H351.415Z" fill="#512FEB"/>
</svg>
